<?xml version="1.0" encoding="UTF-8"?>
<svg version="1.1" xmlns="http://www.w3.org/2000/svg" width="413" height="94">
<path d="M0 0 C9.57 0 19.14 0 29 0 C28.34 2.31 27.68 4.62 27 7 C26.23761759 14.86317668 25.88586998 22.56995348 31 29 C35.98249803 34.26586285 40.49814131 37.01820201 47.8125 37.375 C53.72619311 37.23419778 58.37491803 35.61869491 62.60546875 31.3984375 C63.80160278 29.98451996 64.91070674 28.49777823 66 27 C61.71 26.67 57.42 26.34 53 26 C53 21.71 53 17.42 53 13 C62.9 13 72.8 13 83 13 C81.86843389 25.44722719 79.6914291 34.08702467 71 43 C63.05812161 49.46142371 54.58022015 52.49869869 44.328125 51.82421875 C34.56308155 50.45876776 26.72168088 45.95074856 20.53515625 38.2578125 C15.31258089 30.57677291 13.19664064 23.24210986 13 14 C11.14375 13.6596875 11.14375 13.6596875 9.25 13.3125 C6.15882978 12.52466193 5.01486912 12.01334408 2.5625 9.8125 C1 7 1 7 0 0 Z " fill="#4EBE8B" transform="translate(10,36)"/>
<path d="M0 0 C3.96 0 7.92 0 12 0 C12 4.95 12 9.9 12 15 C14.97 15 17.94 15 21 15 C21 18.63 21 22.26 21 26 C18.03 26 15.06 26 12 26 C12 34.91 12 43.82 12 53 C8.04 53 4.08 53 0 53 C0 44.09 0 35.18 0 26 C-2.64 26 -5.28 26 -8 26 C-8.495 23.525 -8.495 23.525 -9 21 C-9.639375 21.99 -10.27875 22.98 -10.9375 24 C-12.7120224 26.18481659 -13.52520718 26.91901527 -16.3359375 27.3984375 C-18.58377811 27.37716456 -20.76810054 27.26257641 -23 27 C-24.28605661 29.57211322 -24.21043941 31.56906966 -24.31640625 34.4453125 C-24.35830078 35.52167969 -24.40019531 36.59804688 -24.44335938 37.70703125 C-24.50233398 39.39892578 -24.50233398 39.39892578 -24.5625 41.125 C-24.60568359 42.26066406 -24.64886719 43.39632812 -24.69335938 44.56640625 C-24.79965945 47.37745261 -24.90035397 50.1887099 -25 53 C-29.29 53 -33.58 53 -38 53 C-38 40.46 -38 27.92 -38 15 C-32.66666667 15 -27.33333333 15 -22 15 C-20.906875 14.79375 -19.81375 14.5875 -18.6875 14.375 C-14.79095655 13.97874134 -12.5771161 14.51680552 -9 16 C-8.67 15.67 -8.34 15.34 -8 15 C-5.32941149 14.85884839 -2.67567762 14.95752893 0 15 C0 10.05 0 5.1 0 0 Z " fill="#2B3341" transform="translate(390,23)"/>
<path d="M0 0 C0.474375 0.4125 0.94875 0.825 1.4375 1.25 C-0.1220265 5.07792868 -2.39881836 7.61359864 -5.5625 10.25 C-8.00292596 10.1760477 -9.25722597 9.42701886 -11.34765625 8.21484375 C-15.56987353 6.37553569 -20.0571738 6.74070226 -24.5625 7.25 C-28.72302865 9.03308371 -30.68052538 10.88613651 -32.5 14.9375 C-34.37075332 20.91722936 -33.62459416 26.04411212 -30.9375 31.625 C-27.95622389 34.92009464 -25.84825707 36.05560869 -21.5625 37.25 C-17.08142232 37.36529359 -13.61638151 36.8823289 -9.75 34.5625 C-9.028125 34.129375 -8.30625 33.69625 -7.5625 33.25 C-3.66959926 34.22322518 -1.25052002 37.41264553 1.4375 40.25 C-0.41573285 44.79090561 -2.9756515 46.22918691 -7.31640625 48.2578125 C-15.55045251 50.77459679 -25.35067579 50.7846204 -33.25 47.1875 C-40.23771069 42.98061295 -44.92148086 36.76979166 -47.25 28.9375 C-48.34353067 19.53313625 -47.18727155 10.7256029 -41.375 2.875 C-29.58865292 -8.12559061 -13.23060726 -9.03553666 0 0 Z " fill="#2A3341" transform="translate(302.5625,26.75)"/>
<path d="M0 0 C8.15452721 -0.09317588 16.30882751 -0.16400367 24.46375751 -0.20724869 C28.25150328 -0.22801684 32.03888163 -0.25613353 35.82641602 -0.30175781 C39.48988073 -0.34560532 43.15299477 -0.36921783 46.81670189 -0.37950897 C48.20600076 -0.38683135 49.59528307 -0.40112787 50.98443031 -0.42292023 C63.98728972 -0.61856671 73.34962896 1.4591803 82.83203125 10.625 C87.18122274 15.38951969 89.92992132 19.60159138 91 26 C78.36497139 27.07714046 78.36497139 27.07714046 75.203125 24.58203125 C74.0625 22.75 74.0625 22.75 73.06640625 20.8203125 C71.15543897 17.55836835 68.37230602 16.56571351 65 15 C61.504989 14.13005388 58.25729337 13.87584883 54.66235352 13.87402344 C53.10031944 13.86831329 53.10031944 13.86831329 51.50672913 13.86248779 C50.39204758 13.86146057 49.27736603 13.86043335 48.12890625 13.859375 C45.7571518 13.84105383 43.38540673 13.82148416 41.01367188 13.80078125 C37.28295971 13.77177525 33.55285392 13.74999874 29.82202148 13.74951172 C26.21543868 13.74617912 22.61024749 13.71164822 19.00390625 13.671875 C17.89124893 13.6789447 16.77859161 13.6860144 15.63221741 13.69329834 C6.99591628 13.55757094 6.99591628 13.55757094 3.31225586 10.58300781 C-0.05855007 6.81749976 -0.10815584 4.97516853 0 0 Z " fill="#4FBE8B" transform="translate(0,12)"/>
<path d="M0 0 C0.6496875 0.14695313 1.299375 0.29390625 1.96875 0.4453125 C2.29875 0.1153125 2.62875 -0.2146875 2.96875 -0.5546875 C6.92875 -0.5546875 10.88875 -0.5546875 14.96875 -0.5546875 C14.96875 11.9853125 14.96875 24.5253125 14.96875 37.4453125 C11.00875 37.4453125 7.04875 37.4453125 2.96875 37.4453125 C2.96875 36.7853125 2.96875 36.1253125 2.96875 35.4453125 C2.42992187 35.76757812 1.89109375 36.08984375 1.3359375 36.421875 C-3.21718369 38.39038614 -8.17503296 37.97259612 -13.03125 37.4453125 C-16.53125 35.7578125 -16.53125 35.7578125 -19.03125 33.4453125 C-19.77375 32.7646875 -20.51625 32.0840625 -21.28125 31.3828125 C-24.64823519 25.73108735 -25.61929406 19.17916687 -24.53125 12.6953125 C-22.95317554 7.15716441 -20.00984644 3.14818121 -14.98828125 0.27734375 C-9.6155813 -1.90026384 -5.53356131 -1.48586369 0 0 Z M-11.03125 13.4453125 C-12.13498378 17.41875411 -12.44668583 19.53531022 -10.71875 23.3203125 C-9.20399837 25.5349056 -9.20399837 25.5349056 -7.03125 26.4453125 C-3.52787019 26.82611465 -1.66846374 26.84776328 1.34375 24.9453125 C3.62291433 21.43890583 3.78628559 18.51630603 2.96875 14.4453125 C1.50877013 11.81814673 1.50877013 11.81814673 -1.03125 10.4453125 C-5.32741198 9.81878888 -8.11675322 10.09903842 -11.03125 13.4453125 Z " fill="#2B3340" transform="translate(330.03125,38.5546875)"/>
<path d="M0 0 C3.66298564 3.30562118 6.00174508 6.63023524 7.5625 11.3125 C7.5625 14.6125 7.5625 17.9125 7.5625 21.3125 C-1.0175 21.3125 -9.5975 21.3125 -18.4375 21.3125 C-15.89507739 25.54457926 -15.89507739 25.54457926 -12.125 26.25 C-7.95969466 26.3205984 -6.07658295 25.17247573 -2.4375 23.3125 C0.53016919 24.16040548 2.73897849 25.81715478 4.5625 28.3125 C4.5 30.3125 4.5 30.3125 3.5625 32.3125 C-1.66121319 37.01384187 -7.19502923 36.65520588 -13.9140625 36.5859375 C-19.45631114 36.15582951 -23.20475276 34.73037452 -26.9921875 30.62890625 C-31.09701478 25.23697211 -32.14970351 20.10386916 -31.4375 13.3125 C-29.57672935 7.82322657 -27.48015778 3.10062911 -22.34375 0.08203125 C-14.72908408 -3.44818571 -7.59537147 -3.7286369 0 0 Z M-16.375 9.75 C-17.055625 10.595625 -17.73625 11.44125 -18.4375 12.3125 C-13.8175 12.3125 -9.1975 12.3125 -4.4375 12.3125 C-5.0975 10.9925 -5.7575 9.6725 -6.4375 8.3125 C-11.0400981 6.83619495 -12.58260994 6.60312315 -16.375 9.75 Z " fill="#2A3341" transform="translate(160.4375,39.6875)"/>
<path d="M0 0 C3.26099491 2.98571612 5.59633884 5.78901651 7 10 C7 13.63 7 17.26 7 21 C-5.375 21.495 -5.375 21.495 -18 22 C-14.64879663 25.35120337 -13.61339446 25.81908257 -9 26 C-7.96875 25.484375 -6.9375 24.96875 -5.875 24.4375 C-3 23 -3 23 -0.875 23.5 C1.49650583 25.39720467 3.20340867 27.5617689 5 30 C-0.44391644 34.71806091 -3.40524726 36.15533862 -10.8125 36.25 C-12.61654297 36.28867188 -12.61654297 36.28867188 -14.45703125 36.328125 C-19.53954314 35.85741828 -22.77483111 33.99723049 -26.6875 30.8125 C-30.76469445 25.85375 -32.33903049 21.38157471 -31.9375 14.9375 C-31.11296758 9.33755066 -29.62542075 5.07553797 -25.09765625 1.49609375 C-17.17341035 -3.68344128 -8.48609079 -4.93017825 0 0 Z M-16.9375 9.4375 C-17.618125 10.283125 -18.29875 11.12875 -19 12 C-14.38 12 -9.76 12 -5 12 C-5.66 10.68 -6.32 9.36 -7 8 C-11.6025981 6.52369495 -13.14510994 6.29062315 -16.9375 9.4375 Z " fill="#2A3340" transform="translate(202,40)"/>
<path d="M0 0 C3.25511962 2.16170106 6.23348006 4.46696012 8 8 C8.08573394 10.25120742 8.10712188 12.50499303 8.09765625 14.7578125 C8.0962413 15.42086395 8.09482635 16.08391541 8.09336853 16.76705933 C8.08776754 18.88641863 8.075215 21.00567259 8.0625 23.125 C8.05748512 24.56119639 8.05292219 25.99739444 8.04882812 27.43359375 C8.03779782 30.95576345 8.02053259 34.47787145 8 38 C4.04 38 0.08 38 -4 38 C-4.04898438 36.29070312 -4.09796875 34.58140625 -4.1484375 32.8203125 C-4.22345558 30.58852471 -4.29900381 28.3567547 -4.375 26.125 C-4.4059375 24.99707031 -4.436875 23.86914062 -4.46875 22.70703125 C-4.50742188 21.63066406 -4.54609375 20.55429687 -4.5859375 19.4453125 C-4.63306885 17.95281982 -4.63306885 17.95281982 -4.68115234 16.43017578 C-4.77247083 13.82145483 -4.77247083 13.82145483 -7 12 C-10 11.58333333 -10 11.58333333 -13 12 C-15.19164944 15.28747416 -15.28679386 16.48494825 -15.4140625 20.32421875 C-15.47207031 21.86625977 -15.47207031 21.86625977 -15.53125 23.43945312 C-15.5621875 24.51130859 -15.593125 25.58316406 -15.625 26.6875 C-15.68300781 28.31268555 -15.68300781 28.31268555 -15.7421875 29.97070312 C-15.83650116 32.64685334 -15.91934126 35.32340342 -16 38 C-19.96 38 -23.92 38 -28 38 C-28 25.46 -28 12.92 -28 0 C-24.04 0 -20.08 0 -16 0 C-16 0.66 -16 1.32 -16 2 C-14.845 1.484375 -13.69 0.96875 -12.5 0.4375 C-8.07513379 -1.18573134 -4.48559493 -1.64412244 0 0 Z " fill="#2B3341" transform="translate(242,38)"/>
<path d="M0 0 C0.65234375 1.765625 0.65234375 1.765625 1 4 C-0.41999587 6.92317142 -2.4004269 9.06506002 -5 11 C-7.81562806 11.50483535 -10.11065721 11.24077857 -13 11 C-15.60088622 13.60088622 -15.29962225 14.82137113 -15.4140625 18.4453125 C-15.47207031 20.05986328 -15.47207031 20.05986328 -15.53125 21.70703125 C-15.5621875 22.83496094 -15.593125 23.96289062 -15.625 25.125 C-15.68300781 26.82849609 -15.68300781 26.82849609 -15.7421875 28.56640625 C-15.83667233 31.37732987 -15.91943321 34.18864304 -16 37 C-19.96 37 -23.92 37 -28 37 C-28 24.46 -28 11.92 -28 -1 C-23 -1 -18 -1 -13 -1 C-11.9171875 -1.309375 -11.9171875 -1.309375 -10.8125 -1.625 C-6.82514866 -2.15664684 -3.85502635 -1.11077031 0 0 Z " fill="#2A3340" transform="translate(129,39)"/>
</svg>
